<svg xmlns="http://www.w3.org/2000/svg" class="diagram-root" style="background: #f5f6f6" xmlns:xlink="http://www.w3.org/1999/xlink"><style>.diagram-root { font-family: "Helvetica Neue", sans-serif; font-size: 12px; } .t { overflow: visible; } .t-bg { y: 40; fill: #fff;   } .th { fill: #005aa0;   } .tht { fill: #fff; font-size: 14px;  } .tf { fill: #323c46; overflow: visible; } .tf.pk { fill: #005aa0; font-weight: bold; } .tf.fk { font-weight: bold; } .ty { fill: #adb1b5; font-weight: normal; text-anchor: end; } .r { fill: transparent; stroke: #c3c3c3; stroke-width: 1; } .l { stroke: 1; } .i { fill: #c2c7ce; stroke: #c2c7ce; } .i.ix { fill: #afb3b6; stroke: #000; } .fa { fill: transparent; overflow: visible; } .fa .bg.hover { fill: #f7f7f7; } .c { cy: 12; r: 4; stroke: #d2d2dc; fill: #d2d2dc; } .hr { fill: transparent; stroke: #323c46; stroke-opacity: 0.035; stroke-width: 13; } .dc { stroke: #fa5a3c; fill: #fa5a3c; } .x { stroke: white; stroke-width: 1; } .hl .th { fill: #1b9bff; } .hl .tht {  } .fhl .bg { fill: #e7f4ff; } .fhls .bg {  } .r.hl { stroke: #1b9bff; } .dim { opacity: 0.25; }</style><g class="drawing-wrapper" transform="translate(249 2) scale(1)"><g class="rs"><path class="r" id="h1139284389" d="M 170 85 m -1 0 a 1 1 0 1 0 2 0 a 1 1 0 1 0 -2 0 M 170 85 m -0.5 0 a 0.5 0.5 0 1 0 1 0 a 0.5 0.5 0 1 0 -1 0 M 170 85 L 170 85 L 158 85 M 170 91 m -1 0 a 1 1 0 1 0 2 0 a 1 1 0 1 0 -2 0 M 170 91 m -0.5 0 a 0.5 0.5 0 1 0 1 0 a 0.5 0.5 0 1 0 -1 0 M 170 91 L 170 91 L 163 85 L 170 79 M 170 79 m -1 0 a 1 1 0 1 0 2 0 a 1 1 0 1 0 -2 0 M 170 79 m -0.5 0 a 0.5 0.5 0 1 0 1 0 a 0.5 0.5 0 1 0 -1 0 M 158 85 Q 111.6 85 65.19 261 T -27.63 437 M -39.63 437 m -1 0 a 1 1 0 1 0 2 0 a 1 1 0 1 0 -2 0 M -39.63 437 m -0.5 0 a 0.5 0.5 0 1 0 1 0 a 0.5 0.5 0 1 0 -1 0 M -39.63 437 L -39.63 437 L -27.63 437 M -33.63 443 L -33.63 443 L -33.63 431" /><path class="r" id="h1607168654" d="M 170 110 m -1 0 a 1 1 0 1 0 2 0 a 1 1 0 1 0 -2 0 M 170 110 m -0.5 0 a 0.5 0.5 0 1 0 1 0 a 0.5 0.5 0 1 0 -1 0 M 170 110 L 170 110 L 158 110 M 170 116 m -1 0 a 1 1 0 1 0 2 0 a 1 1 0 1 0 -2 0 M 170 116 m -0.5 0 a 0.5 0.5 0 1 0 1 0 a 0.5 0.5 0 1 0 -1 0 M 170 116 L 170 116 L 163 110 L 170 104 M 170 104 m -1 0 a 1 1 0 1 0 2 0 a 1 1 0 1 0 -2 0 M 170 104 m -0.5 0 a 0.5 0.5 0 1 0 1 0 a 0.5 0.5 0 1 0 -1 0 M 158 110 Q 112.93 110 67.86 159 T -22.29 208 M -34.29 208 m -1 0 a 1 1 0 1 0 2 0 a 1 1 0 1 0 -2 0 M -34.29 208 m -0.5 0 a 0.5 0.5 0 1 0 1 0 a 0.5 0.5 0 1 0 -1 0 M -34.29 208 L -34.29 208 L -22.29 208 M -28.29 214 L -28.29 214 L -28.29 202" /><path class="r" id="h1397587031" d="M 362 261 m -1 0 a 1 1 0 1 0 2 0 a 1 1 0 1 0 -2 0 M 362 261 m -0.5 0 a 0.5 0.5 0 1 0 1 0 a 0.5 0.5 0 1 0 -1 0 M 362 261 L 362 261 L 350 261 M 362 267 m -1 0 a 1 1 0 1 0 2 0 a 1 1 0 1 0 -2 0 M 362 267 m -0.5 0 a 0.5 0.5 0 1 0 1 0 a 0.5 0.5 0 1 0 -1 0 M 362 267 L 362 267 L 355 261 L 362 255 M 362 255 m -1 0 a 1 1 0 1 0 2 0 a 1 1 0 1 0 -2 0 M 362 255 m -0.5 0 a 0.5 0.5 0 1 0 1 0 a 0.5 0.5 0 1 0 -1 0 M 350 261 Q 256.93 261 163.86 234.5 T -22.29 208 M -34.29 208 m -1 0 a 1 1 0 1 0 2 0 a 1 1 0 1 0 -2 0 M -34.29 208 m -0.5 0 a 0.5 0.5 0 1 0 1 0 a 0.5 0.5 0 1 0 -1 0 M -34.29 208 L -34.29 208 L -22.29 208 M -28.29 214 L -28.29 214 L -28.29 202" /><path class="r" id="h2286254435" d="M 362 286 m -1 0 a 1 1 0 1 0 2 0 a 1 1 0 1 0 -2 0 M 362 286 m -0.5 0 a 0.5 0.5 0 1 0 1 0 a 0.5 0.5 0 1 0 -1 0 M 362 286 L 362 286 L 350 286 M 362 292 m -1 0 a 1 1 0 1 0 2 0 a 1 1 0 1 0 -2 0 M 362 292 m -0.5 0 a 0.5 0.5 0 1 0 1 0 a 0.5 0.5 0 1 0 -1 0 M 362 292 L 362 292 L 355 286 L 362 280 M 362 280 m -1 0 a 1 1 0 1 0 2 0 a 1 1 0 1 0 -2 0 M 362 280 m -0.5 0 a 0.5 0.5 0 1 0 1 0 a 0.5 0.5 0 1 0 -1 0 M 350 286 Q 255.6 286 161.19 361.5 T -27.63 437 M -39.63 437 m -1 0 a 1 1 0 1 0 2 0 a 1 1 0 1 0 -2 0 M -39.63 437 m -0.5 0 a 0.5 0.5 0 1 0 1 0 a 0.5 0.5 0 1 0 -1 0 M -39.63 437 L -39.63 437 L -27.63 437 M -33.63 443 L -33.63 443 L -33.63 431" /><path class="r" id="h3177548053" d="M 92 575 m -1 0 a 1 1 0 1 0 2 0 a 1 1 0 1 0 -2 0 M 92 575 m -0.5 0 a 0.5 0.5 0 1 0 1 0 a 0.5 0.5 0 1 0 -1 0 M 92 575 L 92 575 L 80 575 M 92 581 m -1 0 a 1 1 0 1 0 2 0 a 1 1 0 1 0 -2 0 M 92 581 m -0.5 0 a 0.5 0.5 0 1 0 1 0 a 0.5 0.5 0 1 0 -1 0 M 92 581 L 92 581 L 85 575 L 92 569 M 92 569 m -1 0 a 1 1 0 1 0 2 0 a 1 1 0 1 0 -2 0 M 92 569 m -0.5 0 a 0.5 0.5 0 1 0 1 0 a 0.5 0.5 0 1 0 -1 0 M 80 575 Q 53.1 575 26.19 506 T -27.63 437 M -39.63 437 m -1 0 a 1 1 0 1 0 2 0 a 1 1 0 1 0 -2 0 M -39.63 437 m -0.5 0 a 0.5 0.5 0 1 0 1 0 a 0.5 0.5 0 1 0 -1 0 M -39.63 437 L -39.63 437 L -27.63 437 M -33.63 443 L -33.63 443 L -33.63 431" /><path class="r" id="h3000826536" d="M 323 463 m -1 0 a 1 1 0 1 0 2 0 a 1 1 0 1 0 -2 0 M 323 463 m -0.5 0 a 0.5 0.5 0 1 0 1 0 a 0.5 0.5 0 1 0 -1 0 M 323 463 L 323 463 L 311 463 M 323 469 m -1 0 a 1 1 0 1 0 2 0 a 1 1 0 1 0 -2 0 M 323 469 m -0.5 0 a 0.5 0.5 0 1 0 1 0 a 0.5 0.5 0 1 0 -1 0 M 323 469 L 323 469 L 316 463 L 323 457 M 323 457 m -1 0 a 1 1 0 1 0 2 0 a 1 1 0 1 0 -2 0 M 323 457 m -0.5 0 a 0.5 0.5 0 1 0 1 0 a 0.5 0.5 0 1 0 -1 0 M 311 463 Q 226.35 463 141.69 450 T -27.63 437 M -39.63 437 m -1 0 a 1 1 0 1 0 2 0 a 1 1 0 1 0 -2 0 M -39.63 437 m -0.5 0 a 0.5 0.5 0 1 0 1 0 a 0.5 0.5 0 1 0 -1 0 M -39.63 437 L -39.63 437 L -27.63 437 M -33.63 443 L -33.63 443 L -33.63 431" /></g><g class="hrs" /><g class="ts"><svg class="t" id="h1090417462" x="170" y="28" width="169.37" height="150"><rect class="th" width="169.37" height="40" /><text class="tht" x="13" y="25">dept_emp</text><rect class="t-bg" y="40" width="169.37" height="110" /><text class="tf fk" x="13" y="61">emp_no<tspan class="ty" x="156.37">VARCHAR(10)</tspan></text><text class="tf fk" x="13" y="86">dept_no<tspan class="ty" x="156.37">VARCHAR(4)</tspan></text><text class="tf" x="13" y="111">from_date<tspan class="ty" x="156.37">date,</tspan></text><text class="tf" x="13" y="136">to_date<tspan class="ty" x="156.37">date</tspan></text></svg><svg class="t" id="h1639608377" x="-210.33" y="380" width="170.7" height="200"><rect class="th" width="170.7" height="40" /><text class="tht" x="13" y="25">employees</text><rect class="t-bg" y="40" width="170.7" height="160" /><text class="tf pk" x="13" y="61">emp_no<tspan class="ty" x="157.7">varchar(10)</tspan></text><path class="i pk" transform="translate(76.35 48) scale(0.65)" d="M 7 14 A 2 2 0 0 1 5 12 A 2 2 0 0 1 7 10 A 2 2 0 0 1 9 12 A 2 2 0 0 1 7 14 M 12.65 10 C 11.83 7.67 9.61 6 7 6 A 6 6 0 0 0 1 12 A 6 6 0 0 0 7 18 C 9.61 18 11.83 16.33 12.65 14 H 17 V 18 H 21 V 14 H 23 V 10 H 12.65 Z" /><text class="tf" x="13" y="86">birth_date<tspan class="ty" x="157.7">date</tspan></text><text class="tf" x="13" y="111">first_name<tspan class="ty" x="157.7">varchar(150)</tspan></text><text class="tf" x="13" y="136">last_name<tspan class="ty" x="157.7">varchar(150)</tspan></text><text class="tf" x="13" y="161">gender<tspan class="ty" x="157.7">char</tspan></text><text class="tf" x="13" y="186">hire_date<tspan class="ty" x="157.7">date</tspan></text></svg><svg class="t" id="h475896179" x="-227" y="151" width="192.71" height="100"><rect class="th" width="192.71" height="40" /><text class="tht" x="13" y="25">departments</text><rect class="t-bg" y="40" width="192.71" height="60" /><text class="tf pk" x="13" y="61">dept_no<tspan class="ty" x="179.71">varchar(4)</tspan></text><path class="i pk" transform="translate(105.03 48) scale(0.65)" d="M 7 14 A 2 2 0 0 1 5 12 A 2 2 0 0 1 7 10 A 2 2 0 0 1 9 12 A 2 2 0 0 1 7 14 M 12.65 10 C 11.83 7.67 9.61 6 7 6 A 6 6 0 0 0 1 12 A 6 6 0 0 0 7 18 C 9.61 18 11.83 16.33 12.65 14 H 17 V 18 H 21 V 14 H 23 V 10 H 12.65 Z" /><text class="tf" x="13" y="86">dept_name<tspan class="ty" x="179.71">VARCHAR(150)</tspan></text></svg><svg class="t" id="h1676682957" x="362" y="204" width="169.37" height="150"><rect class="th" width="169.37" height="40" /><text class="tht" x="13" y="25">dept_manager</text><rect class="t-bg" y="40" width="169.37" height="110" /><text class="tf fk" x="13" y="61">dept_no<tspan class="ty" x="156.37">VARCHAR(4)</tspan></text><text class="tf fk" x="13" y="86">emp_no<tspan class="ty" x="156.37">VARCHAR(10)</tspan></text><text class="tf" x="13" y="111">from_date<tspan class="ty" x="156.37">date</tspan></text><text class="tf" x="13" y="136">to_date<tspan class="ty" x="156.37">date</tspan></text></svg><svg class="t" id="h2472833127" x="92" y="518" width="169.37" height="150"><rect class="th" width="169.37" height="40" /><text class="tht" x="13" y="25">salaries</text><rect class="t-bg" y="40" width="169.37" height="110" /><text class="tf fk" x="13" y="61">emp_no<tspan class="ty" x="156.37">VARCHAR(10)</tspan></text><text class="tf" x="13" y="86">salary<tspan class="ty" x="156.37">FLOAT</tspan></text><text class="tf" x="13" y="111">from_date<tspan class="ty" x="156.37">date</tspan></text><text class="tf" x="13" y="136">to_date<tspan class="ty" x="156.37">date</tspan></text></svg><svg class="t" id="h311790747" x="323" y="406" width="169.37" height="150"><rect class="th" width="169.37" height="40" /><text class="tht" x="13" y="25">titles</text><rect class="t-bg" y="40" width="169.37" height="110" /><text class="tf fk" x="13" y="61">emp_no<tspan class="ty" x="156.37">VARCHAR(10)</tspan></text><text class="tf" x="13" y="86">title<tspan class="ty" x="156.37">VARCHAR(150)</tspan></text><text class="tf" x="13" y="111">from_date<tspan class="ty" x="156.37">date</tspan></text><text class="tf" x="13" y="136">to_date<tspan class="ty" x="156.37">date</tspan></text></svg></g></g><text class="qdbd-link" y="20" x="10">www.quickdatabasediagrams.com</text></svg>